<mxfile host="app.diagrams.net" modified="2024-05-27T13:22:02.009Z" agent="Mozilla/5.0 (Windows NT 10.0; Win64; x64) AppleWebKit/537.36 (KHTML, like Gecko) Chrome/125.0.0.0 Safari/537.36" etag="DiJpmdls-ehYqDk4msUj" version="24.4.9" type="device">
  <diagram id="R2lEEEUBdFMjLlhIrx00" name="Page-1">
    <mxGraphModel dx="1034" dy="500" grid="1" gridSize="10" guides="1" tooltips="1" connect="1" arrows="1" fold="1" page="1" pageScale="1" pageWidth="850" pageHeight="1100" math="0" shadow="0" extFonts="Permanent Marker^https://fonts.googleapis.com/css?family=Permanent+Marker">
      <root>
        <mxCell id="0" />
        <mxCell id="1" parent="0" />
        <mxCell id="ObpMW67qm800cBrTZanl-14" value="&lt;b&gt;Author&lt;/b&gt;&lt;div&gt;- Name: String&lt;/div&gt;&lt;div&gt;- Books: Array&amp;lt;Book&amp;gt;&lt;/div&gt;" style="rounded=0;whiteSpace=wrap;html=1;align=left;" vertex="1" parent="1">
          <mxGeometry x="40" y="210" width="170" height="120" as="geometry" />
        </mxCell>
        <mxCell id="ObpMW67qm800cBrTZanl-17" value="&lt;b&gt;Book&lt;/b&gt;&lt;div&gt;- Name: String&lt;/div&gt;&lt;div&gt;- AuthorId: int&lt;/div&gt;&lt;div&gt;- Genre: Array&amp;lt;Genre&amp;gt;&lt;/div&gt;&lt;div&gt;- Rating: Array&amp;lt;Rating&amp;gt;&lt;/div&gt;&lt;div&gt;&lt;br&gt;&lt;/div&gt;&lt;div&gt;&lt;br&gt;&lt;/div&gt;&lt;div&gt;&lt;br&gt;&lt;/div&gt;&lt;div&gt;&lt;br&gt;&lt;/div&gt;&lt;div&gt;&lt;br&gt;&lt;/div&gt;&lt;div&gt;&lt;br&gt;&lt;/div&gt;" style="rounded=0;whiteSpace=wrap;html=1;align=left;" vertex="1" parent="1">
          <mxGeometry x="260" y="185" width="200" height="170" as="geometry" />
        </mxCell>
        <mxCell id="ObpMW67qm800cBrTZanl-19" value="" style="endArrow=none;html=1;rounded=0;exitX=1;exitY=0.5;exitDx=0;exitDy=0;entryX=0;entryY=0.5;entryDx=0;entryDy=0;" edge="1" parent="1" source="ObpMW67qm800cBrTZanl-14" target="ObpMW67qm800cBrTZanl-17">
          <mxGeometry width="50" height="50" relative="1" as="geometry">
            <mxPoint x="260" y="390" as="sourcePoint" />
            <mxPoint x="310" y="340" as="targetPoint" />
          </mxGeometry>
        </mxCell>
        <mxCell id="ObpMW67qm800cBrTZanl-20" value="&lt;b&gt;Rating&lt;/b&gt;&lt;div&gt;- BookId: int&lt;/div&gt;&lt;div&gt;- Rating: double&lt;/div&gt;" style="rounded=0;whiteSpace=wrap;html=1;align=left;" vertex="1" parent="1">
          <mxGeometry x="300" y="275" width="120" height="60" as="geometry" />
        </mxCell>
        <mxCell id="ObpMW67qm800cBrTZanl-21" value="&lt;b&gt;Genre&lt;/b&gt;&lt;div&gt;- Genre: String&lt;/div&gt;&lt;div&gt;- Books: Array&amp;lt;Book&amp;gt;&lt;/div&gt;" style="rounded=0;whiteSpace=wrap;html=1;align=left;" vertex="1" parent="1">
          <mxGeometry x="520" y="240" width="120" height="60" as="geometry" />
        </mxCell>
        <mxCell id="ObpMW67qm800cBrTZanl-22" value="" style="endArrow=none;html=1;rounded=0;exitX=1;exitY=0.5;exitDx=0;exitDy=0;entryX=0;entryY=0.5;entryDx=0;entryDy=0;" edge="1" parent="1" source="ObpMW67qm800cBrTZanl-17" target="ObpMW67qm800cBrTZanl-21">
          <mxGeometry width="50" height="50" relative="1" as="geometry">
            <mxPoint x="400" y="240" as="sourcePoint" />
            <mxPoint x="450" y="190" as="targetPoint" />
          </mxGeometry>
        </mxCell>
        <mxCell id="ObpMW67qm800cBrTZanl-23" value="- An author can write many books and books can be co-written&lt;div&gt;- A Book can have multiple genres and each genre can fit multiple books&lt;/div&gt;&lt;div&gt;- A book can have many ratings towards it, hence why it is fitted inside Book&lt;/div&gt;" style="text;strokeColor=none;align=left;fillColor=none;html=1;verticalAlign=middle;whiteSpace=wrap;rounded=0;" vertex="1" parent="1">
          <mxGeometry x="40" y="100" width="250" height="100" as="geometry" />
        </mxCell>
      </root>
    </mxGraphModel>
  </diagram>
</mxfile>
